<svg xmlns="http://www.w3.org/2000/svg" width="51" height="50" viewBox="0 0 51 50">
  <g id="패스_26" data-name="패스 26" fill="none">
    <path d="M25.5,0A25.254,25.254,0,0,1,51,25,25,25,0,0,1,38.876,46.289,25.5,25.5,0,0,1,25.5,50,25.254,25.254,0,0,1,0,25,25.254,25.254,0,0,1,25.5,0Z" stroke="none"/>
    <path d="M 25.5 4 C 22.58600997924805 4 19.76201057434082 4.558349609375 17.10643005371094 5.659538269042969 C 14.54449081420898 6.721900939941406 12.24406814575195 8.242340087890625 10.26905822753906 10.17861938476562 C 6.226398468017578 14.14202117919922 4 19.40568923950195 4 25 C 4 30.59431076049805 6.226398468017578 35.85797882080078 10.26905822753906 39.82138061523438 C 12.24406814575195 41.75765991210938 14.54449081420898 43.27809906005859 17.10643005371094 44.34046173095703 C 19.76201057434082 45.441650390625 22.58600997924805 46 25.5 46 C 29.54073905944824 46 33.54088973999023 44.89619064331055 36.76564788818359 42.89060974121094 C 39.88938903808594 40.95048904418945 42.47671127319336 38.30924224853516 44.24790954589844 35.25238037109375 C 46.04833984375 32.14506912231445 47 28.5998592376709 47 25 C 47 19.40568923950195 44.77360153198242 14.14202117919922 40.73094177246094 10.17861938476562 C 38.75592803955078 8.242340087890625 36.45550918579102 6.721900939941406 33.89356994628906 5.659538269042969 C 31.23798942565918 4.558349609375 28.41399002075195 4 25.5 4 M 25.5 0 C 39.58325958251953 0 51 11.19287872314453 51 25 C 51 33.89178085327148 46.26506805419922 41.69934844970703 38.87607955932617 46.28855895996094 C 35.18933868408203 48.58145904541016 30.51363945007324 50 25.5 50 C 11.41674041748047 50 0 38.80712127685547 0 25 C 0 11.19287872314453 11.41674041748047 0 25.5 0 Z" stroke="none" fill="#9297ff"/>
  </g>
</svg>
