<svg xmlns="http://www.w3.org/2000/svg" width="22.279" height="22.279" viewBox="0 0 22.279 22.279">
  <g id="그룹_286" data-name="그룹 286" transform="translate(-176 -459)">
    <g id="user-images" transform="translate(176 459)">
      <path id="패스_115" data-name="패스 115" d="M11.713,9.426a3.713,3.713,0,1,1,3.713-3.713A3.717,3.717,0,0,1,11.713,9.426Zm0-6.034a2.321,2.321,0,1,0,2.321,2.321A2.323,2.323,0,0,0,11.713,3.392Z" transform="translate(-0.574 -0.143)" fill="#9297ff"/>
      <path id="패스_116" data-name="패스 116" d="M18.157,19.426a.7.7,0,0,1-.7-.7V16.409a3.02,3.02,0,0,0-3.017-3.017H8.409a3.02,3.02,0,0,0-3.017,3.017V18.73A.7.7,0,1,1,4,18.73V16.409A4.415,4.415,0,0,1,8.409,12h6.034a4.415,4.415,0,0,1,4.409,4.409V18.73A.7.7,0,0,1,18.157,19.426Z" transform="translate(-0.287 -0.86)" fill="#9297ff"/>
      <path id="패스_117" data-name="패스 117" d="M.7,6.034a.7.7,0,0,1-.7-.7V2.553A2.555,2.555,0,0,1,2.553,0H5.338a.7.7,0,1,1,0,1.392H2.553a1.162,1.162,0,0,0-1.16,1.16V5.338A.7.7,0,0,1,.7,6.034Z" fill="#9297ff"/>
      <path id="패스_118" data-name="패스 118" d="M5.338,23.534H2.553A2.555,2.555,0,0,1,0,20.981V18.2a.7.7,0,1,1,1.392,0v2.785a1.162,1.162,0,0,0,1.16,1.16H5.338a.7.7,0,1,1,0,1.392Z" transform="translate(0 -1.255)" fill="#9297ff"/>
      <path id="패스_119" data-name="패스 119" d="M22.838,6.034a.7.7,0,0,1-.7-.7V2.553a1.162,1.162,0,0,0-1.16-1.16H18.2A.7.7,0,1,1,18.2,0h2.785a2.555,2.555,0,0,1,2.553,2.553V5.338A.7.7,0,0,1,22.838,6.034Z" transform="translate(-1.255)" fill="#9297ff"/>
      <path id="패스_120" data-name="패스 120" d="M20.981,23.534H18.2a.7.7,0,1,1,0-1.392h2.785a1.162,1.162,0,0,0,1.16-1.16V18.2a.7.7,0,1,1,1.392,0v2.785A2.555,2.555,0,0,1,20.981,23.534Z" transform="translate(-1.255 -1.255)" fill="#9297ff"/>
    </g>
  </g>
</svg>
 