<svg xmlns="http://www.w3.org/2000/svg" width="294.656" height="394.305" viewBox="0 0 294.656 394.305">
  <path id="women-style" d="M344.479,385.166a9,9,0,0,1-9,9.139H211.161a9,9,0,0,1-9-9V359.446a9,9,0,0,1,5.288-8.2c4.679-2.118,10.52-4.285,17.281-6.794,12.225-4.535,26.079-9.676,37.026-16.015,7.238-4.19,15.928-10.574,16.219-17.187a13.524,13.524,0,0,0-3.6-9.939,9.636,9.636,0,0,0-6.908-3.193c-5.692,0-10.5,6.2-10.5,13.529a9,9,0,0,1-18,0c0-17.386,12.785-31.529,28.5-31.529a27.451,27.451,0,0,1,19.912,8.748,31.607,31.607,0,0,1,8.577,23.177c-1.127,25.6-38.024,39.289-64.966,49.285-3.994,1.481-7.65,2.839-10.831,4.1v10.878H326.34l-.168-10.952-22.31-8.312a9,9,0,1,1,6.283-16.867l28.072,10.458a9,9,0,0,1,5.857,8.3ZM111.048,226.916a9,9,0,1,0,0-18,29.138,29.138,0,0,1-29.1-29.1V104.635a86.636,86.636,0,0,1,173.272,0v75.176a29.138,29.138,0,0,1-29.1,29.1,9,9,0,0,0,0,18,47.158,47.158,0,0,0,47.1-47.1V104.635a104.637,104.637,0,0,0-209.273,0v75.176A47.159,47.159,0,0,0,111.048,226.916Zm26.747-105.279c-3.79,2-7.71,4.065-11.509,6.2-7.951,4.471-15.577,9.747-17.523,18.02-1.7,7.25,1.714,13.534,4.883,18.2,7.239,10.657,26.893,35.45,53,35.493,8.068-.015,16.054-2.578,25.893-8.313,23.5-13.7,38.1-39.742,38.1-67.969a89.216,89.216,0,0,0-5.638-32.317,9,9,0,0,0-16.786,6.5,71.379,71.379,0,0,1,4.423,25.817c0,21.847-11.177,41.932-29.169,52.418-6.943,4.047-12.144,5.855-16.829,5.864-14.29-.023-29.058-14.276-38.113-27.607a14.715,14.715,0,0,1-2.184-4.033c.388-.606,2.064-2.619,8.756-6.381,3.587-2.017,7.4-4.026,11.083-5.969,20.512-10.814,41.723-22,45.4-44.241,3.29-19.9-3.794-31.984-10.316-38.617C170.767,44.018,153.8,39.51,134.706,42.342a9,9,0,1,0,2.639,17.805c13.333-1.973,24.668.64,31.1,7.177,5.229,5.316,7.043,13.075,5.392,23.061C171.612,103.808,155.185,112.468,137.795,121.637Zm34.111,245.821H143.375L74.749,281.5c25.28-6.608,67.8-21.453,80.2-48.6a9,9,0,0,0-16.373-7.479c-9.313,20.393-49.682,35.216-81.461,41.725a8.839,8.839,0,0,0-1.144.3,8.969,8.969,0,0,0-4.37,3.169,8.843,8.843,0,0,0-.672,1.05,9.013,9.013,0,0,0-.65,7.141,0,0,0,0,1,0,0l0,.01a8.959,8.959,0,0,0,1.648,2.953l80.026,100.238c.1.12.192.238.293.354a8.973,8.973,0,0,0,6.475,3.091q.162.006.324.006h32.856a9,9,0,0,0,0-18Zm63.228-95.291a9,9,0,0,0,3.391-17.34c-21.063-8.558-35.28-19-40.032-29.406A9,9,0,0,0,182.12,232.9c6.861,15.023,23.56,28.012,49.63,38.6A8.979,8.979,0,0,0,235.134,272.167Z" transform="translate(-49.824)" fill="#9297ff"/>
</svg>
